# xmcd
#
# Track frame offsets:
#	150
#	16248
#	30959
#	51581
#	71573
#	85476
#	101124
#	120865
#	136308
#	153165
#	163512
#	195677
#	208929
#	223713
#
# Disc length: 3267 seconds
#
# Revision: 0
# Processed by: cddbd v1.5.2PL0 Copyright (c) Steve Scherf et al.
# Submitted via: FairStars CD Ripper 1.90
#
DISCID=c00cc10e
DTITLE=Bert Deivert - Takin' Sam's Advice
DYEAR=2000
DGENRE=Blues
TTITLE0=Seems Like a Dream
TTITLE1=Big Road Blues
TTITLE2=Preachin' Blues
TTITLE3=When You Got a True Friend
TTITLE4=Silver City
TTITLE5=I Want to Know
TTITLE6=My baby's Gone
TTITLE7=Mississippi Blues
TTITLE8=Crow Jane
TTITLE9=That's Alright
TTITLE10=Leave Camp Moan
TTITLE11=Morning Blues
TTITLE12=Broke and Hungry
TTITLE13=Divin' Duck Blues
EXTD=
EXTT0=
EXTT1=
EXTT2=
EXTT3=
EXTT4=
EXTT5=
EXTT6=
EXTT7=
EXTT8=
EXTT9=
EXTT10=
EXTT11=
EXTT12=
EXTT13=
PLAYORDER=
